<?xml version="1.0" encoding="utf-8"?>
<!-- Generator: Adobe Illustrator 23.0.3, SVG Export Plug-In . SVG Version: 6.00 Build 0)  -->
<svg xmlns:xlink="http://www.w3.org/1999/xlink" version="1.1" id="Calque_1" xmlns="http://www.w3.org/2000/svg" x="0px"
     y="0px"
     viewBox="0 0 150 75" style="enable-background:new 0 0 150 75;" xml:space="preserve">
<style type="text/css">
	.st0{clip-path:url(#SVGID_2_);fill:#FFFFFF;}
</style>
    <g>
	<g>
		<defs>
			<rect id="SVGID_1_" width="150" height="75"/>
		</defs>
        <clipPath id="SVGID_2_">
			<use xlink:href="#SVGID_1_" style="overflow:visible;"/>
		</clipPath>
        <path class="st0" d="M119.8,26h-5.9v-5.2h-11.1L97.6,26H92l-3.1,2.8V26H84v-5.2H64.6V26H41l-5.2-5.2H25v22.9l5.2,5.2l8.7,5.2h7.3
			v-1.4l2.8,1.4h13.9l2.4-3.1l0.3,3.1h9L75,51l3.1,3.1h8.3l0.3-3.1l2.8,3.1h9l3.1-3.1v3.1h4.9l4.2-3.1v3.1h5.6l8.7-5.9v-17L119.8,26
			z M38.9,34.7h-5.6v5.6h5.6v6.3h-7.6l-3.8-3.8V23.3h5.9v5.2h5.6V34.7z M64.6,42.4l-4.2,4.2H41V28.5h6.3v11.8h2.4V28.5h6.3v11.8h2.4
			V28.5h6.3V42.4z M72.9,46.5h-6.3V28.5h6.3V46.5z M72.9,26h-6.3v-2.8h6.3V26z M86.8,34.7h-5.2v5.6h5.2v6.3h-7.6l-3.8-3.8V23.3h6.3
			v5.2h5.2V34.7z M102.8,34.7h-7.6v5.6h7.6v6.3h-9.7l-3.8-3.8V32.3l3.8-3.8h9.7V34.7z M122.6,46.5h-5.9V34.7h-5.6v11.8h-5.9V23.3
			h5.9v5.2h7.6l3.8,3.8V46.5z"/>
	</g>
</g>
</svg>
