<?xml version="1.0" standalone="no"?>
<!DOCTYPE svg PUBLIC "-//W3C//DTD SVG 20010904//EN"
 "http://www.w3.org/TR/2001/REC-SVG-20010904/DTD/svg10.dtd">
<svg version="1.0" xmlns="http://www.w3.org/2000/svg"
 width="840.000000pt" height="840.000000pt" viewBox="0 0 840.000000 840.000000"
 preserveAspectRatio="xMidYMid meet">
<metadata>
Created by potrace 1.11, written by Peter Selinger 2001-2013
</metadata>
<g transform="translate(0.000000,840.000000) scale(0.100000,-0.100000)"
fill="#000000" stroke="none">
<path d="M4149 8358 c-164 -129 -338 -308 -512 -528 -7 -8 -28 -37 -47 -65
-19 -27 -37 -52 -40 -55 -7 -7 -22 -31 -103 -170 -76 -129 -113 -174 -163
-200 -33 -17 -195 -129 -234 -161 -14 -11 -36 -29 -50 -40 -119 -95 -300 -275
-375 -375 -16 -21 -35 -45 -42 -52 -7 -7 -13 -16 -13 -20 0 -4 -13 -22 -28
-40 -35 -40 -138 -212 -185 -307 -54 -108 -135 -315 -137 -347 -1 -4 -7 -26
-15 -48 -8 -22 -12 -40 -10 -40 3 0 0 -12 -6 -27 -6 -16 -13 -37 -15 -48 -2
-11 -6 -31 -9 -45 -3 -14 -8 -38 -10 -55 -3 -16 -7 -41 -10 -55 -3 -14 -8 -52
-11 -85 -3 -33 -7 -71 -9 -83 -3 -15 -108 -128 -277 -298 -150 -151 -537 -541
-860 -867 l-588 -592 363 -358 c199 -197 611 -604 916 -905 554 -548 1000
-988 1786 -1766 231 -229 421 -416 421 -416 1 0 69 -67 152 -150 83 -82 156
-150 161 -150 6 0 93 82 194 183 186 184 1017 1005 1617 1597 179 177 584 577
900 890 316 312 691 682 832 822 l257 253 -595 599 c-327 330 -594 603 -594
608 0 4 -4 8 -9 8 -5 0 -28 19 -51 43 -23 23 -138 140 -257 260 -206 208 -215
219 -218 260 -8 115 -54 360 -78 417 -4 8 -8 24 -10 35 -2 11 -7 27 -10 35 -3
8 -12 35 -21 60 -34 107 -171 400 -195 420 -3 3 -13 19 -21 35 -8 17 -18 32
-21 35 -3 3 -21 28 -39 55 -19 28 -37 52 -42 53 -4 2 -8 8 -8 13 0 5 -8 19
-19 31 -179 215 -285 321 -446 446 -44 34 -84 66 -90 70 -31 24 -135 92 -141
92 -4 0 -16 7 -26 17 -10 9 -28 21 -41 27 -12 7 -33 32 -46 56 -13 25 -38 67
-55 95 -17 27 -30 53 -28 58 1 4 -5 10 -13 13 -8 4 -15 11 -15 18 0 10 -62
105 -105 161 -9 11 -35 45 -58 75 -23 30 -44 57 -47 60 -3 3 -29 34 -59 70
-65 77 -244 257 -320 320 -29 25 -59 50 -65 55 -58 50 -48 50 -107 3z"/>
</g>
</svg>
